<svg xmlns="http://www.w3.org/2000/svg" role="img" viewBox="0 0 1200 500" preserveAspectRatio="xMidYMid slice">
  <defs>
    <linearGradient id="sky13" x1="0" y1="0" x2="0" y2="1">
      <stop offset="0" stop-color="#cfe9e1"/>
      <stop offset="0.55" stop-color="#e6efd9"/>
      <stop offset="1" stop-color="#f4ead0"/>
    </linearGradient>
  </defs>
  <rect width="1200" height="500" fill="url(#sky13)"/>
  <circle cx="270" cy="140" r="74" fill="#f7e0a6"/>
  <!-- far hills -->
  <path d="M0,272 L200,212 L420,278 L640,214 L880,278 L1080,222 L1200,268 L1200,330 L0,330 Z" fill="#a7c79c"/>
  <!-- mid hills -->
  <path d="M0,318 L260,256 L520,316 L760,250 L1020,314 L1200,272 L1200,360 L0,360 Z" fill="#629d66"/>
  <!-- broad calm river -->
  <rect x="0" y="300" width="1200" height="200" fill="#7fc9d6"/>
  <rect x="0" y="300" width="1200" height="44" fill="#9bd7e1"/>
  <!-- still reflections -->
  <rect x="120" y="372" width="240" height="6" fill="#9bd7e1"/>
  <rect x="540" y="402" width="320" height="6" fill="#9bd7e1"/>
  <rect x="860" y="446" width="230" height="6" fill="#9bd7e1"/>
  <!-- low railless bridge -->
  <rect x="0" y="324" width="1200" height="9" fill="#d4d8c8"/>
  <rect x="120" y="333" width="8" height="26" fill="#a6ad96"/>
  <rect x="320" y="333" width="8" height="26" fill="#a6ad96"/>
  <rect x="520" y="333" width="8" height="26" fill="#a6ad96"/>
  <rect x="720" y="333" width="8" height="26" fill="#a6ad96"/>
  <rect x="920" y="333" width="8" height="26" fill="#a6ad96"/>
  <rect x="1080" y="333" width="8" height="26" fill="#a6ad96"/>
  <!-- canoe with paddler -->
  <path d="M470,432 C520,418 660,418 712,432 C660,452 520,452 470,432 Z" fill="#b4633a"/>
  <rect x="576" y="402" width="11" height="30" fill="#3e5b4a"/>
  <circle cx="581" cy="396" r="11" fill="#3e5b4a"/>
  <rect x="556" y="408" width="74" height="5" fill="#caa15f" transform="rotate(-22 593 410)"/>
</svg>
