<svg xmlns="http://www.w3.org/2000/svg" role="img" viewBox="0 0 1200 500" preserveAspectRatio="xMidYMid slice">
  <defs>
    <linearGradient id="sky14" x1="0" y1="0" x2="0" y2="1">
      <stop offset="0" stop-color="#cfe2e8"/>
      <stop offset="0.55" stop-color="#e8e3d6"/>
      <stop offset="1" stop-color="#f4dca8"/>
    </linearGradient>
  </defs>
  <rect width="1200" height="500" fill="url(#sky14)"/>
  <circle cx="930" cy="138" r="68" fill="#f6d79c"/>
  <!-- far coastal islands -->
  <path d="M0,288 L180,250 L360,290 L520,256 L700,292 L900,252 L1100,290 L1200,266 L1200,330 L0,330 Z" fill="#9cbfba"/>
  <!-- sea -->
  <rect x="0" y="300" width="1200" height="200" fill="#2f8f93"/>
  <rect x="0" y="300" width="1200" height="34" fill="#54aaab"/>
  <!-- castle hill -->
  <path d="M250,330 C350,250 470,250 560,330 Z" fill="#4f7d52"/>
  <!-- Uwajima castle keep (hero) -->
  <g fill="#33454a">
    <rect x="372" y="232" width="66" height="44"/>
    <path d="M360,232 L405,206 L450,232 Z"/>
    <rect x="358" y="276" width="94" height="34"/>
    <path d="M348,276 L405,250 L462,276 Z"/>
    <rect x="344" y="310" width="122" height="22"/>
  </g>
  <!-- Uchiko old-town rooftops (foreground) -->
  <g fill="#3a3f3a">
    <path d="M0,360 L40,340 L120,360 Z"/>
    <path d="M110,360 L160,336 L230,360 Z"/>
    <path d="M220,360 L286,332 L360,360 Z"/>
    <path d="M620,360 L700,330 L788,360 Z"/>
    <path d="M770,360 L840,338 L912,360 Z"/>
    <path d="M900,360 L968,334 L1052,360 Z"/>
    <path d="M1030,360 L1100,338 L1180,360 Z"/>
  </g>
  <rect x="0" y="356" width="1200" height="14" fill="#3a3f3a"/>
</svg>
