<svg xmlns="http://www.w3.org/2000/svg" viewBox="0 0 1200 500" preserveAspectRatio="xMidYMid slice" role="img">
  <defs>
    <linearGradient id="sky" x1="0" y1="0" x2="0" y2="1">
      <stop offset="0" stop-color="#4b62a0"/>
      <stop offset="0.6" stop-color="#c79a8e"/>
      <stop offset="1" stop-color="#f2c1a0"/>
    </linearGradient>
  </defs>
  <rect width="1200" height="500" fill="url(#sky)"/>
  <circle cx="930" cy="150" r="58" fill="#f8d8ad"/>
  <circle cx="930" cy="150" r="82" fill="#f8d8ad" opacity="0.18"/>
  <!-- snow-capped Fuji on the horizon (hero, distant) -->
  <path d="M470 300 L600 168 L730 300 Z" fill="#6f7fb0"/>
  <path d="M566 211 L600 168 L634 211 L620 205 L608 214 L596 204 L584 214 L576 206 Z" fill="#f4f1ec"/>
  <!-- far ridge (lightest) -->
  <path d="M0 304 L200 286 L420 300 L640 282 L860 302 L1080 286 L1200 300 L1200 360 L0 360 Z" fill="#56689e"/>
  <!-- mid wooded hills -->
  <path d="M0 360 L240 312 L480 352 L720 314 L960 352 L1200 320 L1200 410 L0 410 Z" fill="#3f5189"/>
  <!-- front valley (darkest, calm lower third) -->
  <path d="M0 410 L260 372 L520 404 L780 374 L1040 404 L1200 386 L1200 500 L0 500 Z" fill="#2f3f72"/>
  <!-- onsen steam strokes rising -->
  <g fill="none" stroke="#f6ece2" stroke-width="9" stroke-linecap="round" opacity="0.7">
    <path d="M250 392 C232 356 282 338 258 300 C240 270 280 252 262 222"/>
    <path d="M330 400 C314 366 360 348 338 312 C322 284 358 266 342 238"/>
    <path d="M410 396 C396 364 438 346 418 312 C404 286 436 270 422 244"/>
  </g>
</svg>
