<svg xmlns="http://www.w3.org/2000/svg" viewBox="0 0 1200 500" preserveAspectRatio="xMidYMid slice" role="img">
  <defs>
    <linearGradient id="sky" x1="0" y1="0" x2="0" y2="1">
      <stop offset="0" stop-color="#4a64a8"/>
      <stop offset="0.62" stop-color="#c099a0"/>
      <stop offset="1" stop-color="#f2c8a8"/>
    </linearGradient>
  </defs>
  <rect width="1200" height="500" fill="url(#sky)"/>
  <circle cx="960" cy="132" r="54" fill="#f8d8ad"/>
  <circle cx="960" cy="132" r="76" fill="#f8d8ad" opacity="0.18"/>
  <!-- far ridge behind -->
  <path d="M0 300 L220 282 L460 298 L720 282 L980 298 L1200 286 L1200 332 L0 332 Z" fill="#5a6fa6"/>
  <!-- big Fuji (hero) -->
  <path d="M300 332 L600 110 L900 332 Z" fill="#54699f"/>
  <path d="M516 178 L600 110 L684 178 L664 168 L646 182 L626 166 L606 184 L586 166 L566 182 L546 168 L530 180 Z" fill="#f4f1ec"/>
  <path d="M562 206 L578 194 L590 214 L606 198 L618 218 L634 202 L646 220 L600 332 L556 220 Z" fill="#f4f1ec" opacity="0.5"/>
  <!-- lake -->
  <rect x="0" y="332" width="1200" height="168" fill="#33518a"/>
  <!-- mirrored Fuji reflection -->
  <path d="M300 332 L600 540 L900 332 Z" fill="#3e5c93" opacity="0.7"/>
  <path d="M520 478 L600 540 L680 478 Z" fill="#dfe3ec" opacity="0.45"/>
  <!-- reflection ripples breaking the mirror -->
  <g fill="#33518a">
    <rect x="300" y="360" width="600" height="9"/>
    <rect x="320" y="392" width="560" height="8"/>
    <rect x="340" y="424" width="520" height="8"/>
    <rect x="360" y="456" width="480" height="8"/>
  </g>
  <path d="M0 356 Q300 348 600 356 T1200 356 L1200 380 L0 380 Z" fill="#2c4779" opacity="0.55"/>
  <!-- lakeside flower row (Oishi Park nod) -->
  <g opacity="0.9">
    <circle cx="60" cy="470" r="9" fill="#e58aa0"/>
    <circle cx="110" cy="478" r="9" fill="#f0a8b8"/>
    <circle cx="160" cy="470" r="9" fill="#e58aa0"/>
    <circle cx="1040" cy="472" r="9" fill="#f0a8b8"/>
    <circle cx="1090" cy="480" r="9" fill="#e58aa0"/>
    <circle cx="1140" cy="472" r="9" fill="#f0a8b8"/>
  </g>
</svg>
