<svg xmlns="http://www.w3.org/2000/svg" role="img" viewBox="0 0 1200 500" preserveAspectRatio="xMidYMid slice">
  <defs>
    <linearGradient id="sky12" x1="0" y1="0" x2="0" y2="1">
      <stop offset="0" stop-color="#bfe3ea"/>
      <stop offset="0.55" stop-color="#dcefe1"/>
      <stop offset="1" stop-color="#eff4db"/>
    </linearGradient>
  </defs>
  <rect width="1200" height="500" fill="url(#sky12)"/>
  <circle cx="940" cy="132" r="70" fill="#f7e7ad"/>
  <!-- far ridges -->
  <path d="M0,252 L150,176 L320,238 L470,168 L640,242 L810,162 L1000,236 L1200,182 L1200,310 L0,310 Z" fill="#a3c79a"/>
  <!-- mid ridges -->
  <path d="M0,308 L210,214 L420,292 L610,206 L820,294 L1040,222 L1200,288 L1200,360 L0,360 Z" fill="#5f9d64"/>
  <!-- valley floor -->
  <rect x="0" y="300" width="1200" height="200" fill="#3f7d4f"/>
  <!-- Niyodo blue river -->
  <path d="M598,300 C548,360 770,402 596,500 L824,500 C708,402 716,360 662,300 Z" fill="#4fbcd2"/>
  <path d="M626,300 C604,360 690,406 612,500 L668,500 C710,404 660,360 648,300 Z" fill="#86d6e3"/>
  <!-- sinking bridge (railless slab) -->
  <rect x="470" y="392" width="382" height="11" fill="#cdd2c4"/>
  <rect x="520" y="403" width="9" height="34" fill="#9aa392"/>
  <rect x="600" y="403" width="9" height="40" fill="#9aa392"/>
  <rect x="680" y="403" width="9" height="40" fill="#9aa392"/>
  <rect x="760" y="403" width="9" height="34" fill="#9aa392"/>
  <!-- foreground hills -->
  <path d="M0,360 L260,322 L360,360 Z" fill="#2c5e3e"/>
  <path d="M1200,360 L940,322 L840,360 Z" fill="#2c5e3e"/>
  <rect x="0" y="356" width="1200" height="12" fill="#2c5e3e"/>
</svg>
